<?xml version="1.0" standalone="no"?>
<!DOCTYPE svg PUBLIC "-//W3C//DTD SVG 20010904//EN"
 "http://www.w3.org/TR/2001/REC-SVG-20010904/DTD/svg10.dtd">
<svg version="1.0" xmlns="http://www.w3.org/2000/svg"
 width="300.000000pt" height="154.000000pt" viewBox="0 0 300.000000 154.000000"
 preserveAspectRatio="xMidYMid meet">
<metadata>
Created by potrace 1.10, written by Peter Selinger 2001-2011
</metadata>
<g transform="translate(0.000000,154.000000) scale(0.100000,-0.100000)"
fill="#000000" stroke="none">
<path d="M2005 1151 c-71 -18 -138 -74 -151 -127 -12 -49 2 -114 35 -154 l31
-39 -40 -31 c-51 -41 -53 -74 -8 -126 93 -105 289 -115 380 -18 70 76 62 183
-21 251 l-26 22 23 16 c38 28 62 58 62 78 0 11 -19 39 -43 62 -61 62 -155 87
-242 66z m166 -56 c35 -18 89 -64 89 -76 0 -3 -18 -18 -40 -33 l-41 -27 -25
20 c-50 40 -144 40 -144 1 0 -22 19 -32 128 -70 85 -30 122 -73 122 -139 0
-59 -25 -95 -84 -122 -47 -21 -130 -24 -189 -7 -40 12 -117 75 -117 96 0 5 19
24 42 41 34 25 44 28 50 17 15 -27 77 -57 117 -58 47 0 61 7 61 32 0 22 -29
39 -110 65 -110 35 -140 67 -140 150 0 57 35 99 98 120 56 18 137 13 183 -10z"/>
<path d="M872 1127 c-20 -21 -180 -398 -195 -459 -5 -18 -1 -33 12 -49 16 -20
29 -24 75 -24 71 0 86 14 128 124 18 47 38 86 43 88 6 2 25 -34 43 -79 37 -92
47 -109 79 -126 52 -28 143 2 143 48 0 10 -27 85 -61 166 -33 82 -72 179 -86
216 -34 92 -60 118 -116 118 -33 0 -49 -6 -65 -23z m199 -242 c49 -121 92
-228 95 -238 5 -16 0 -18 -52 -15 l-58 3 -60 154 c-58 148 -61 153 -71 125 -7
-16 -33 -86 -60 -156 l-48 -128 -60 0 c-43 0 -58 3 -54 13 3 6 48 115 99 240
l93 228 43 -3 44 -3 89 -220z"/>
<path d="M1287 1132 c-39 -42 -29 -127 16 -150 12 -6 38 -13 57 -14 l35 -3 5
-163 5 -164 28 -24 c42 -36 123 -27 144 15 4 9 10 88 13 176 l5 160 35 3 c72
6 109 50 96 114 -13 67 -18 68 -231 68 -173 0 -194 -2 -208 -18z m403 -72 l0
-50 -70 0 -70 0 0 -190 0 -190 -55 0 -55 0 0 190 0 190 -70 0 -70 0 0 50 0 50
195 0 195 0 0 -50z"/>
</g>
</svg>
